<svg width="26" height="22" viewBox="0 0 26 22" fill="none" xmlns="http://www.w3.org/2000/svg">
<path d="M18.485 18.4925H6.81237C6.7374 18.4925 6.69992 18.4925 6.66593 18.492C6.65975 18.4919 6.65358 18.4918 6.6474 18.4917V19.7673V21.0434C6.6474 21.5717 6.2411 22 5.7399 22C5.2387 22 4.8324 21.5717 4.8324 21.0434V18.0788C3.82956 17.6173 3.03039 16.7977 2.64469 15.7624C2.63344 15.7322 2.62159 15.6987 2.59789 15.6318L1.02124 11.1772C0.518382 9.75639 1.64125 8.28918 3.23144 8.28918C4.21191 8.28918 5.08746 8.86732 5.42167 9.73542L6.75039 13.1868C6.87131 13.5009 6.93178 13.658 7.01941 13.7863C7.22404 14.0862 7.54543 14.2984 7.91447 14.3774C8.0725 14.4112 8.24989 14.4112 8.60466 14.4112H17.0494C17.738 14.4112 18.0823 14.4112 18.3703 14.2861C18.5275 14.2178 18.6704 14.1234 18.7922 14.0075C19.0152 13.7952 19.1326 13.4904 19.3673 12.8807L20.5781 9.73542C20.9123 8.86732 21.7879 8.28918 22.7684 8.28918C24.3586 8.28918 25.4814 9.75639 24.9786 11.1772L23.6241 15.0041C23.388 15.6712 23.2699 16.0047 23.114 16.2882C22.6809 17.0758 21.9936 17.6987 21.1674 18.0787V21.0434C21.1674 21.5717 20.7611 22 20.2599 22C19.7587 22 19.3524 21.5717 19.3524 21.0434V18.4867C19.1266 18.4925 18.8505 18.4925 18.485 18.4925Z" fill="white"/>
<path d="M14.4955 2.59396e-07H11.5051C10.1728 -1.21154e-05 9.11417 -2.1951e-05 8.28494 0.111897C7.43226 0.226981 6.73094 0.470255 6.17358 1.02977C5.61206 1.59347 5.36409 2.30981 5.24752 3.18024C5.13523 4.01867 5.13524 5.08648 5.13525 6.41882V7.54128L5.38994 7.73194C5.89287 8.10844 6.29921 8.62267 6.54337 9.25687L8.03702 13.1366L17.0499 13.1368C17.2245 13.1368 17.366 13.1368 17.4895 13.135L17.492 13.1349L17.9613 13.126L18.114 12.7429C18.152 12.6476 18.1945 12.5373 18.2466 12.4021L19.4574 9.25687C19.7016 8.62277 20.1078 8.10861 20.6106 7.73213L20.8653 7.54147V6.41885C20.8653 5.0865 20.8653 4.01868 20.753 3.18024C20.6364 2.30981 20.3885 1.59347 19.8269 1.02977C19.2696 0.470255 18.5683 0.226981 17.7156 0.111897C16.8863 -2.1951e-05 15.8278 -1.21154e-05 14.4955 2.59396e-07Z" fill="white"/>
</svg>
