<svg width="24" height="24" viewBox="0 0 24 24" fill="none" xmlns="http://www.w3.org/2000/svg">
<path d="M16.2225 17.4016C16.4325 17.2378 16.6229 17.0473 17.0039 16.6664L21.7528 11.9175C21.8676 11.8027 21.815 11.6049 21.6616 11.5517C21.1011 11.3572 20.3719 10.9921 19.6898 10.31C19.0077 9.62792 18.6426 8.89873 18.4481 8.33819C18.3949 8.18479 18.1971 8.13224 18.0823 8.24705L13.3334 12.9959C12.9525 13.3769 12.762 13.5673 12.5982 13.7773C12.405 14.0251 12.2394 14.2931 12.1042 14.5767C11.9896 14.8171 11.9044 15.0727 11.7341 15.5837L11.514 16.2441L11.1639 17.2942L10.8357 18.2787C10.7519 18.5302 10.8174 18.8075 11.0048 18.995C11.1923 19.1824 11.4696 19.2479 11.7211 19.1641L12.7056 18.8359L13.7557 18.4859L14.4161 18.2657L14.4161 18.2657C14.9271 18.0954 15.1827 18.0102 15.4231 17.8956C15.7067 17.7604 15.9747 17.5948 16.2225 17.4016Z" fill="white"/>
<path d="M23.2396 10.4306C24.2532 9.41705 24.2532 7.77374 23.2396 6.76017C22.2261 5.74661 20.5828 5.74661 19.5692 6.76017L19.4165 6.91285C19.2692 7.06017 19.2024 7.26596 19.2392 7.47103C19.2624 7.60003 19.3053 7.78864 19.3834 8.01369C19.5395 8.46377 19.8344 9.05458 20.3898 9.60998C20.9452 10.1654 21.536 10.4603 21.9861 10.6164C22.2112 10.6945 22.3998 10.7374 22.5288 10.7606C22.7338 10.7974 22.9396 10.7306 23.087 10.5833L23.2396 10.4306Z" fill="white"/>
<path fill-rule="evenodd" clip-rule="evenodd" d="M1.40589 1.40589C0 2.81178 0 5.07452 0 9.6V14.4C0 18.9255 0 21.1882 1.40589 22.5941C2.81178 24 5.07452 24 9.6 24H12C16.5255 24 18.7882 24 20.1941 22.5941C21.5774 21.2108 21.5996 18.9979 21.6 14.6161L18.218 17.9981C17.8943 18.322 17.6292 18.5873 17.3298 18.8209C16.9789 19.0945 16.5994 19.3291 16.1977 19.5205C15.8549 19.6839 15.4991 19.8024 15.0646 19.947L12.2905 20.8717C11.3922 21.1711 10.4018 20.9373 9.73227 20.2678C9.06272 19.5982 8.82892 18.6078 9.12836 17.7095L9.45655 16.725L10.0267 15.0145L10.053 14.9356C10.1977 14.501 10.3162 14.1451 10.4795 13.8023C10.6709 13.4007 10.9055 13.0211 11.1792 12.6703C11.4127 12.3709 11.6781 12.1057 12.002 11.782L16.8098 6.97426L18.144 5.64005L18.2966 5.48738C19.1551 4.6289 20.2804 4.19977 21.4056 4.2C21.224 2.96334 20.873 2.08473 20.1941 1.40589C18.7882 0 16.5255 0 12 0H9.6C5.07452 0 2.81178 0 1.40589 1.40589ZM5.1 8.4C5.1 7.90294 5.50294 7.5 6 7.5H13.8C14.2971 7.5 14.7 7.90294 14.7 8.4C14.7 8.89706 14.2971 9.3 13.8 9.3H6C5.50294 9.3 5.1 8.89706 5.1 8.4ZM5.1 13.2C5.1 12.7029 5.50294 12.3 6 12.3H9C9.49706 12.3 9.9 12.7029 9.9 13.2C9.9 13.6971 9.49706 14.1 9 14.1H6C5.50294 14.1 5.1 13.6971 5.1 13.2ZM5.1 18C5.1 17.5029 5.50294 17.1 6 17.1H7.8C8.29706 17.1 8.7 17.5029 8.7 18C8.7 18.4971 8.29706 18.9 7.8 18.9H6C5.50294 18.9 5.1 18.4971 5.1 18Z" fill="white"/>
</svg>
