<svg width="14" height="14" viewBox="0 0 14 14" fill="none" xmlns="http://www.w3.org/2000/svg">
<path d="M7 14C10.866 14 14 12.5897 14 10.85C14 9.96337 13.1859 9.16228 11.8758 8.58984C11.0763 10.0569 9.85721 11.3215 8.30866 11.9832C7.4763 12.339 6.5237 12.339 5.69134 11.9832C4.14279 11.3215 2.92366 10.0569 2.12421 8.58984C0.814066 9.16228 0 9.96337 0 10.85C0 12.5897 3.13401 14 7 14Z" fill="#139297"/>
<path fill-rule="evenodd" clip-rule="evenodd" d="M2.1001 4.56024C2.1001 2.04169 4.2939 0 7.0001 0C9.70629 0 11.9001 2.04169 11.9001 4.56024C11.9001 7.05906 10.3362 9.97495 7.89614 11.0177C7.32733 11.2608 6.67286 11.2608 6.10405 11.0177C3.66401 9.97495 2.1001 7.05906 2.1001 4.56024ZM7.0001 6.3C7.7733 6.3 8.4001 5.6732 8.4001 4.9C8.4001 4.1268 7.7733 3.5 7.0001 3.5C6.2269 3.5 5.6001 4.1268 5.6001 4.9C5.6001 5.6732 6.2269 6.3 7.0001 6.3Z" fill="#139297"/>
</svg>
