<svg width="24" height="24" viewBox="0 0 24 24" fill="none" xmlns="http://www.w3.org/2000/svg">
<path d="M19.5485 0.421289C19.7967 0.0104748 20.3332 -0.122738 20.7468 0.123751L20.2975 0.867596C20.7468 0.123751 20.7464 0.123515 20.7468 0.123751L20.7485 0.124716L20.7503 0.125816L20.7546 0.128422L20.7658 0.135268C20.7743 0.140559 20.7851 0.147313 20.7979 0.155546C20.8235 0.172006 20.8574 0.194414 20.8984 0.222905C20.9803 0.279833 21.0909 0.361377 21.2205 0.468659C21.4792 0.682736 21.8174 1.00254 22.1543 1.43748C22.8331 2.31389 23.5 3.65198 23.5 5.49408C23.5 7.33617 22.8331 8.67426 22.1543 9.55067C21.8174 9.98562 21.4792 10.3054 21.2205 10.5195C21.0909 10.6268 20.9803 10.7083 20.8984 10.7652C20.8574 10.7937 20.8235 10.8161 20.7979 10.8326C20.7915 10.8367 20.7856 10.8405 20.7803 10.8438C20.7749 10.8472 20.7701 10.8502 20.7658 10.8529L20.7546 10.8597L20.7503 10.8623L20.7485 10.8634C20.7481 10.8637 20.7468 10.8644 20.2975 10.1206L20.7468 10.8644C20.3332 11.1109 19.7967 10.9777 19.5485 10.5669C19.3014 10.1578 19.4333 9.62769 19.8429 9.37984L19.8493 9.37575C19.8578 9.3703 19.874 9.35972 19.8967 9.34394C19.9422 9.31231 20.0135 9.26012 20.1022 9.18668C20.2803 9.03932 20.5243 8.80972 20.7697 8.49287C21.2555 7.86567 21.7532 6.89052 21.7532 5.49408C21.7532 4.09764 21.2555 3.12248 20.7697 2.49529C20.5243 2.17843 20.2803 1.94884 20.1022 1.80147C20.0135 1.72803 19.9422 1.67584 19.8967 1.64421C19.874 1.62843 19.8578 1.61785 19.8493 1.6124L19.8429 1.60832C19.4333 1.36047 19.3014 0.830376 19.5485 0.421289Z" fill="white"/>
<path d="M9.81646 10.1206C12.3891 10.1206 14.4747 8.04921 14.4747 5.49408C14.4747 2.93894 12.3891 0.867596 9.81646 0.867596C7.24379 0.867596 5.15823 2.93894 5.15823 5.49408C5.15823 8.04921 7.24379 10.1206 9.81646 10.1206Z" fill="white"/>
<path d="M0.5 18.7952C0.5 21.6697 0.5 24 9.81646 24C19.1329 24 19.1329 21.6697 19.1329 18.7952C19.1329 15.9207 14.9618 13.5904 9.81646 13.5904C4.67112 13.5904 0.5 15.9207 0.5 18.7952Z" fill="white"/>
<path d="M18.4177 2.43699C18.0041 2.1905 17.4676 2.32371 17.2194 2.73453L17.5085 3.91832L17.5175 3.92447C17.5312 3.93396 17.557 3.95272 17.5912 3.98098C17.66 4.03798 17.7585 4.13023 17.8583 4.25913C18.053 4.51043 18.2595 4.90727 18.2595 5.49408C18.2595 6.08088 18.053 6.47773 17.8583 6.72902C17.7585 6.85793 17.66 6.95017 17.5912 7.00718C17.557 7.03544 17.5312 7.05419 17.5175 7.06368L17.5085 7.06983C17.1031 7.31903 16.9733 7.84631 17.2194 8.25362C17.4676 8.66444 18.0041 8.79765 18.4177 8.55116L17.9684 7.80732C18.4177 8.55116 18.4173 8.55139 18.4177 8.55116L18.4193 8.55023L18.421 8.54922L18.4246 8.547L18.4333 8.54169L18.4557 8.52756C18.4728 8.51657 18.4942 8.50241 18.5193 8.48499C18.5693 8.4502 18.6344 8.40209 18.7095 8.33999C18.8589 8.21627 19.0516 8.03382 19.2429 7.78683C19.6306 7.28631 20.0063 6.52654 20.0063 5.49408C20.0063 4.46162 19.6306 3.70184 19.2429 3.20133C19.0516 2.95433 18.8589 2.77188 18.7095 2.64817C18.6344 2.58606 18.5693 2.53795 18.5193 2.50316C18.4942 2.48574 18.4728 2.47158 18.4557 2.4606L18.4333 2.44647L18.4246 2.44115L18.421 2.43893L18.4193 2.43792C18.4189 2.43769 18.4177 2.43699 17.9684 3.18084L18.4177 2.43699Z" fill="white"/>
</svg>
