<svg width="24" height="24" viewBox="0 0 24 24" fill="none" xmlns="http://www.w3.org/2000/svg">
<path fill-rule="evenodd" clip-rule="evenodd" d="M10.2585 23.4335L10.5586 22.9265C11.0395 22.1141 11.2799 21.7078 11.663 21.4812C12.046 21.2547 12.5456 21.2387 13.5449 21.2067C14.4818 21.1767 15.1116 21.095 15.65 20.872C16.7836 20.4024 17.6843 19.5017 18.1539 18.3681C18.506 17.5179 18.506 16.44 18.506 14.2843V13.359C18.506 10.33 18.506 8.81554 17.8243 7.703C17.4428 7.08047 16.9194 6.55706 16.2969 6.17557C15.1843 5.4938 13.6699 5.4938 10.641 5.4938H7.86506C4.83615 5.4938 3.3217 5.4938 2.20916 6.17557C1.58664 6.55706 1.06324 7.08047 0.681762 7.703C0 8.81554 0 10.33 0 13.359V14.2843C0 16.44 0 17.5179 0.352172 18.3681C0.821734 19.5017 1.7224 20.4024 2.85602 20.872C3.39446 21.095 4.02417 21.1767 4.96113 21.2067C5.96038 21.2387 6.46 21.2547 6.84304 21.4812C7.22607 21.7078 7.46652 22.1141 7.94743 22.9265L8.24749 23.4335C8.69457 24.1888 9.81142 24.1888 10.2585 23.4335ZM13.3012 14.7469C13.94 14.7469 14.4578 14.2291 14.4578 13.5903C14.4578 12.9515 13.94 12.4336 13.3012 12.4336C12.6624 12.4336 12.1446 12.9515 12.1446 13.5903C12.1446 14.2291 12.6624 14.7469 13.3012 14.7469ZM10.4096 13.5903C10.4096 14.2291 9.8918 14.7469 9.25301 14.7469C8.61423 14.7469 8.09639 14.2291 8.09639 13.5903C8.09639 12.9515 8.61423 12.4336 9.25301 12.4336C9.8918 12.4336 10.4096 12.9515 10.4096 13.5903ZM5.20482 14.7469C5.84361 14.7469 6.36145 14.2291 6.36145 13.5903C6.36145 12.9515 5.84361 12.4336 5.20482 12.4336C4.56603 12.4336 4.04819 12.9515 4.04819 13.5903C4.04819 14.2291 4.56603 14.7469 5.20482 14.7469Z" fill="white"/>
<path d="M15.8036 1.93581e-07C17.1856 -9.05185e-06 18.2847 -1.63974e-05 19.1661 0.0837905C20.0699 0.169723 20.834 0.349849 21.5147 0.766993C22.215 1.19617 22.8039 1.785 23.233 2.48534C23.6502 3.16606 23.8303 3.93021 23.9162 4.83399C24 5.7154 24 6.81451 24 8.19654V9.14048C24 10.1241 24 10.9064 23.9567 11.5408C23.9124 12.1899 23.82 12.7472 23.6038 13.2691C23.0756 14.5444 22.0623 15.5577 20.787 16.0859C20.7551 16.0992 20.723 16.1119 20.6908 16.1242C20.5369 16.1831 20.405 16.2335 20.2892 16.2711C20.3061 15.7085 20.306 15.0677 20.306 14.3446V13.2738C20.3061 11.8318 20.3061 10.624 20.2127 9.64195C20.115 8.61389 19.9023 7.64912 19.359 6.76249C18.8291 5.89776 18.1021 5.17072 17.2374 4.64081C16.3507 4.09748 15.386 3.88484 14.3579 3.78709C13.3759 3.69372 12.1681 3.69375 10.7261 3.69378H7.77992C6.80061 3.69376 5.92926 3.69374 5.16331 3.72298C5.199 3.59932 5.24789 3.45757 5.30527 3.29119C5.40287 3.00822 5.52623 2.7406 5.68265 2.48534C6.11181 1.785 6.70064 1.19617 7.40097 0.766993C8.08168 0.349849 8.84582 0.169723 9.74959 0.0837905C10.631 -1.63974e-05 11.7301 -9.05185e-06 13.1121 1.93581e-07H15.8036Z" fill="white"/>
</svg>
