<svg width="24" height="24" viewBox="0 0 24 24" fill="none" xmlns="http://www.w3.org/2000/svg">
<path d="M14.958 0.940088C14.2225 0.338744 13.3019 0.00692278 12.3501 9.7499e-05L12.2966 5.56796e-07H7.92107C6.40521 -2.10199e-05 5.18335 -3.84018e-05 4.22238 0.128579C3.22468 0.262115 2.38463 0.54779 1.71744 1.21197C1.05026 1.87616 0.763298 2.71243 0.62916 3.70566C0.499961 4.6623 0.499979 5.87864 0.500001 7.38769L0.500001 23.1724C0.500001 23.6295 0.872198 24 1.33132 24C1.79045 24 2.16265 23.6295 2.16265 23.1724V7.44828C2.16265 5.86437 2.16441 4.75969 2.27698 3.9262C2.38633 3.11652 2.58634 2.68775 2.89311 2.38236C3.19988 2.07696 3.63059 1.87785 4.44393 1.76899L7.9819 1.65517H12.2944L12.3381 1.65524L12.3402 1.65525C12.9098 1.65982 13.4607 1.85838 13.9013 2.21793L13.9029 2.21923L13.937 2.24747L13.9416 2.25126C13.9812 2.28412 14.0088 2.30702 14.0336 2.32694C14.6246 2.80214 15.3114 3.09157 16.018 3.19858V5.24138H17.6807V3.11557C18.3604 2.94189 19.0038 2.59501 19.539 2.07833C19.562 2.0561 19.5872 2.03107 19.624 1.99435L20.2082 1.41278C20.5329 1.08959 20.5329 0.565589 20.2082 0.242397C19.8836 -0.0807958 19.3572 -0.0807957 19.0326 0.242397L18.4533 0.819069C18.4095 0.862697 18.3941 0.877965 18.3815 0.890129C18.1714 1.09297 17.9339 1.25212 17.6807 1.36711V0.827589C17.6807 0.370525 17.3085 5.56796e-07 16.8493 5.56796e-07C16.3902 5.56796e-07 16.018 0.370525 16.018 0.827589V1.51125C15.6834 1.42492 15.3627 1.26795 15.0783 1.0393L15.0003 0.974997L14.9615 0.942944L14.958 0.940088Z" fill="white"/>
<path fill-rule="evenodd" clip-rule="evenodd" d="M23.5001 12.1378V10.4826H20.1748C19.7157 10.4826 19.3435 10.1121 19.3435 9.655C19.3435 9.19794 19.7157 8.82742 20.1748 8.82742H23.4982C23.4869 7.28597 23.4076 6.44192 22.8508 5.8876C22.2015 5.24121 21.1565 5.24121 19.0664 5.24121H14.6327C12.5426 5.24121 11.4976 5.24121 10.8483 5.8876C10.199 6.53398 10.199 7.57432 10.199 9.65501V16.835C10.199 17.56 10.506 18.2515 11.0446 18.7396C12.4703 20.0315 14.2225 20.7637 16.0182 20.936V22.0688C16.0182 22.5259 16.3904 22.8964 16.8495 22.8964C17.3087 22.8964 17.6809 22.5259 17.6809 22.0688V20.936C19.4766 20.7637 21.2288 20.0315 22.6545 18.7396C23.1931 18.2515 23.5001 17.56 23.5001 16.835V13.7929H21.2833C20.8241 13.7929 20.4519 13.4224 20.4519 12.9653C20.4519 12.5083 20.8241 12.1378 21.2833 12.1378H23.5001ZM16.8495 15.1722C18.0739 15.1722 19.0664 14.143 19.0664 12.8734C19.0664 12.079 18.1985 11.0188 17.5488 10.3363C17.1642 9.93232 16.5349 9.93232 16.1503 10.3363C15.5006 11.0188 14.6327 12.079 14.6327 12.8734C14.6327 14.143 15.6252 15.1722 16.8495 15.1722Z" fill="white"/>
</svg>
