<svg width="22" height="22" viewBox="0 0 22 22" fill="none" xmlns="http://www.w3.org/2000/svg">
<path d="M22 11C22 17.0751 17.0751 22 11 22C4.92487 22 0 17.0751 0 11C0 4.92487 4.92487 0 11 0C17.0751 0 22 4.92487 22 11Z" fill="white"/>
<path fill-rule="evenodd" clip-rule="evenodd" d="M11 5.775C11.4556 5.775 11.825 6.14437 11.825 6.6V10.6583L14.3334 13.1666C14.6555 13.4888 14.6555 14.0112 14.3334 14.3334C14.0112 14.6555 13.4888 14.6555 13.1666 14.3334L10.4166 11.5834C10.2619 11.4286 10.175 11.2188 10.175 11V6.6C10.175 6.14437 10.5444 5.775 11 5.775Z" fill="#139297"/>
</svg>
