<svg width="22" height="22" viewBox="0 0 22 22" fill="none" xmlns="http://www.w3.org/2000/svg">
<path fill-rule="evenodd" clip-rule="evenodd" d="M0 11V6.6C0 3.48873 0 1.9331 0.966547 0.966548C1.93309 0 3.48873 0 6.6 0H15.4C18.5113 0 20.0669 0 21.0335 0.966547C22 1.9331 22 3.48873 22 6.6V11C22 14.1113 22 15.6669 21.0335 16.6335C20.5095 17.1574 19.8124 17.3973 18.7882 17.5072C18.7068 17.3973 18.6298 17.3108 18.5748 17.2503C18.4471 17.1098 18.2851 16.9501 18.128 16.7953L16.4857 15.1758L15.8792 14.5614C15.4807 12.2266 13.4481 10.45 11.0001 10.45C8.55207 10.45 6.51948 12.2266 6.1209 14.5614L5.51442 15.1758L3.87222 16.7952C3.71513 16.95 3.55309 17.1098 3.42531 17.2503C3.37034 17.3108 3.29329 17.3973 3.21189 17.5072C2.18765 17.3974 1.49053 17.1574 0.966547 16.6335C0 15.6669 0 14.1113 0 11ZM7.7 3.575C7.24437 3.575 6.875 3.94437 6.875 4.4C6.875 4.85564 7.24437 5.225 7.7 5.225H14.3C14.7556 5.225 15.125 4.85564 15.125 4.4C15.125 3.94437 14.7556 3.575 14.3 3.575H7.7ZM4.675 8.25C4.675 7.79436 5.04436 7.425 5.5 7.425H16.5C16.9556 7.425 17.325 7.79436 17.325 8.25C17.325 8.70564 16.9556 9.075 16.5 9.075H5.5C5.04436 9.075 4.675 8.70564 4.675 8.25Z" fill="white"/>
<path d="M14.3 15.4C14.3 17.2225 12.8225 18.7 11 18.7C9.17746 18.7 7.7 17.2225 7.7 15.4C7.7 13.5775 9.17746 12.1 11 12.1C12.8225 12.1 14.3 13.5775 14.3 15.4Z" fill="white"/>
<path d="M7.70123 15.3092C7.70041 15.3393 7.7 15.3696 7.7 15.4C7.7 17.2225 9.17746 18.7 11 18.7C12.8225 18.7 14.3 17.2225 14.3 15.4C14.3 15.3696 14.2996 15.3393 14.2988 15.3092C14.2507 13.5286 12.7922 12.1 11 12.1C9.29137 12.1 7.88603 13.3986 7.71704 15.0626C7.70878 15.1439 7.70347 15.2262 7.70123 15.3092Z" fill="white"/>
<path d="M6.24327 16.7743L5.05476 17.9463C4.69828 18.2978 4.52004 18.4736 4.45836 18.6224C4.31781 18.9616 4.43809 19.3378 4.74411 19.5163C4.87841 19.5946 5.12063 19.619 5.60509 19.6678C5.87862 19.6953 6.01538 19.7091 6.12993 19.7509C6.38637 19.8445 6.58586 20.0412 6.6808 20.2941C6.7232 20.4071 6.73717 20.5419 6.76511 20.8117C6.8146 21.2894 6.83934 21.5282 6.91874 21.6607C7.09968 21.9624 7.48122 22.081 7.82518 21.9424C7.97612 21.8816 8.15436 21.7059 8.51084 21.3543L9.6993 20.1773C8.03556 19.7254 6.72009 18.4276 6.24327 16.7743Z" fill="white"/>
<path d="M12.3007 20.1773L13.4892 21.3543C13.8456 21.7059 14.0239 21.8816 14.1748 21.9424C14.5188 22.081 14.9003 21.9624 15.0813 21.6607C15.1607 21.5282 15.1854 21.2894 15.2349 20.8117C15.2628 20.5419 15.2768 20.4071 15.3192 20.2941C15.4141 20.0412 15.6136 19.8445 15.8701 19.7509C15.9846 19.7091 16.1214 19.6953 16.3949 19.6678C16.8794 19.619 17.1216 19.5946 17.2559 19.5163C17.5619 19.3378 17.6822 18.9616 17.5416 18.6224C17.48 18.4736 17.3017 18.2978 16.9452 17.9463L15.7567 16.7743C15.2799 18.4276 13.9644 19.7254 12.3007 20.1773Z" fill="white"/>
</svg>
