<svg width="22" height="22" viewBox="0 0 22 22" fill="none" xmlns="http://www.w3.org/2000/svg">
<path fill-rule="evenodd" clip-rule="evenodd" d="M1.61091 1.61091C0 3.22183 0 5.81455 0 11C0 16.1854 0 18.7782 1.61091 20.3891C3.22183 22 5.81455 22 11 22C16.1854 22 18.7782 22 20.3891 20.3891C22 18.7782 22 16.1854 22 11C22 5.81455 22 3.22183 20.3891 1.61091C18.7782 0 16.1854 0 11 0C5.81455 0 3.22183 0 1.61091 1.61091ZM11.4373 13.2423L14.1449 15.9499C14.4252 16.2303 14.5654 16.3705 14.7218 16.4352C14.9303 16.5216 15.1645 16.5216 15.373 16.4352C15.5294 16.3705 15.6696 16.2303 15.9499 15.9499C16.2303 15.6696 16.3705 15.5294 16.4352 15.373C16.5216 15.1645 16.5216 14.9303 16.4352 14.7218C16.3705 14.5654 16.2303 14.4252 15.9499 14.1449L13.2423 11.4373L14.0692 10.6105C14.9156 9.764 15.3389 9.34076 15.239 8.88586C15.1391 8.43097 14.5774 8.22405 13.4541 7.8102L9.70782 6.42999C7.46698 5.60441 6.34656 5.19163 5.76909 5.76909C5.19163 6.34656 5.60441 7.46698 6.42998 9.70782L7.8102 13.4541C8.22405 14.5774 8.43097 15.1391 8.88586 15.239C9.34076 15.3389 9.764 14.9156 10.6105 14.0692L11.4373 13.2423Z" fill="white"/>
</svg>
