<svg width="16" height="22" viewBox="0 0 16 22" fill="none" xmlns="http://www.w3.org/2000/svg">
<path d="M1.28925 0C1.72514 0 2.07849 0.343595 2.07849 0.767442V2.66047L3.8892 2.30833C5.6261 1.97055 7.42654 2.13128 9.07114 2.77095L9.50605 2.94011C11.0055 3.52331 12.6558 3.63222 14.2225 3.25136C14.8865 3.08995 15.4197 3.78973 15.0676 4.36042L13.7222 6.54087C13.3628 7.12326 13.1831 7.41446 13.1405 7.7312C13.1228 7.86333 13.1228 7.99714 13.1405 8.12926C13.1831 8.44601 13.3628 8.7372 13.7222 9.3196L15.3645 11.9812C15.6916 12.5112 15.3991 13.1979 14.7823 13.3478L14.6769 13.3734C12.8148 13.8261 10.8533 13.6967 9.07114 13.0035C7.42654 12.3638 5.6261 12.2031 3.8892 12.5409L2.07849 12.893V21.2326C2.07849 21.6564 1.72514 22 1.28925 22C0.853358 22 0.5 21.6564 0.5 21.2326V0.767442C0.5 0.343595 0.853358 0 1.28925 0Z" fill="white"/>
</svg>
