<svg width="20" height="22" viewBox="0 0 20 22" fill="none" xmlns="http://www.w3.org/2000/svg">
<path fill-rule="evenodd" clip-rule="evenodd" d="M0.419462 3.39065C0 3.98231 0 5.74098 0 9.25832V10.9905C0 17.1924 4.70996 20.202 7.66507 21.48C8.46668 21.8267 8.86749 22 10 22C11.1325 22 11.5333 21.8267 12.3349 21.48C15.29 20.202 20 17.1924 20 10.9905V9.25832C20 5.74098 20 3.98231 19.5805 3.39065C19.1611 2.79899 17.4908 2.23295 14.1501 1.10087L13.5136 0.885189C11.7722 0.295063 10.9015 0 10 0C9.09846 0 8.22776 0.295063 6.48636 0.885188L5.8499 1.10087C2.50925 2.23295 0.838924 2.79899 0.419462 3.39065ZM8.73474 6.99969L8.5891 7.25834C8.42912 7.54245 8.34914 7.68451 8.22442 7.77823C8.0997 7.87196 7.94438 7.90676 7.63373 7.97634L7.35091 8.03969C6.25771 8.28456 5.71112 8.407 5.58108 8.821C5.45103 9.235 5.82367 9.66639 6.56893 10.5292L6.76174 10.7524C6.97352 10.9976 7.07941 11.1201 7.12705 11.2718C7.17469 11.4235 7.15868 11.587 7.12666 11.9141L7.09751 12.2119C6.98484 13.3631 6.9285 13.9386 7.26896 14.1945C7.60941 14.4504 8.12119 14.2171 9.14474 13.7505L9.40955 13.6298C9.70041 13.4972 9.84584 13.4309 10 13.4309C10.1542 13.4309 10.2996 13.4972 10.5905 13.6298L10.8553 13.7505C11.8788 14.2171 12.3906 14.4504 12.731 14.1945C13.0715 13.9386 13.0152 13.3631 12.9025 12.2119L12.8733 11.9141C12.8413 11.587 12.8253 11.4234 12.873 11.2718C12.9206 11.1201 13.0265 10.9976 13.2383 10.7524L13.4311 10.5292C14.1763 9.66639 14.549 9.235 14.4189 8.821C14.2889 8.407 13.7423 8.28456 12.6491 8.03969L12.3663 7.97634C12.0556 7.90676 11.9003 7.87196 11.7756 7.77823C11.6509 7.68451 11.5709 7.54245 11.4109 7.25835L11.2653 6.99968C10.7023 5.9999 10.4208 5.5 10 5.5C9.57917 5.5 9.29769 5.9999 8.73474 6.99969Z" fill="white"/>
</svg>
