<svg width="20" height="21" viewBox="0 0 20 21" fill="none" xmlns="http://www.w3.org/2000/svg">
<path fill-rule="evenodd" clip-rule="evenodd" d="M10 10.6265C10.4142 10.6265 10.75 10.9663 10.75 11.3855V12.1446H11.5C11.9142 12.1446 12.25 12.4844 12.25 12.9036C12.25 13.3228 11.9142 13.6626 11.5 13.6626H10.75V14.4217C10.75 14.8409 10.4142 15.1807 10 15.1807C9.58579 15.1807 9.25 14.8409 9.25 14.4217V13.6626H8.5C8.08579 13.6626 7.75 13.3228 7.75 12.9036C7.75 12.4844 8.08579 12.1446 8.5 12.1446H9.25V11.3855C9.25 10.9663 9.58579 10.6265 10 10.6265Z" fill="white"/>
<path fill-rule="evenodd" clip-rule="evenodd" d="M9.948 1.07994e-06C9.04953 -2.76945e-05 8.3003 -5.16891e-05 7.70552 0.0808772C7.07773 0.166299 6.51093 0.354206 6.05546 0.815164C5.59999 1.27612 5.41432 1.84975 5.32991 2.48511C5.24995 3.08705 5.24997 3.8453 5.25 4.7546L5.25 4.83326C3.22882 4.90018 2.01511 5.13921 1.17157 5.99292C0 7.17861 0 9.08694 0 12.9036C0 16.7203 0 18.6286 1.17157 19.8143C2.34314 21 4.22876 21 7.99998 21H12C15.7712 21 17.6569 21 18.8284 19.8143C20 18.6286 20 16.7203 20 12.9036C20 9.08694 20 7.17861 18.8284 5.99292C17.9849 5.13921 16.7712 4.90018 14.75 4.83326L14.75 4.75461C14.75 3.84532 14.7501 3.08705 14.6701 2.48511C14.5857 1.84975 14.4 1.27612 13.9445 0.815164C13.4891 0.354206 12.9223 0.166299 12.2945 0.0808772C11.6997 -5.16891e-05 10.9505 -2.76945e-05 10.052 1.07994e-06H9.948ZM13.25 4.80914V4.80723C13.25 3.83161 13.2484 3.17624 13.1835 2.68739C13.1214 2.22037 13.0142 2.02049 12.8839 1.8886C12.7536 1.75672 12.5561 1.6482 12.0946 1.58541C11.6116 1.51969 10.964 1.51808 10 1.51808C9.03599 1.51808 8.38843 1.51969 7.90539 1.58541C7.44393 1.6482 7.24643 1.75672 7.11612 1.8886C6.9858 2.02049 6.87858 2.22037 6.81654 2.68739C6.75159 3.17624 6.75 3.83161 6.75 4.80723V4.80914C7.14203 4.80723 7.55807 4.80723 8 4.80723H12C12.4419 4.80723 12.858 4.80723 13.25 4.80914ZM14 12.9036C14 15.1394 12.2091 16.9518 10 16.9518C7.79086 16.9518 6 15.1394 6 12.9036C6 10.6679 7.79086 8.85542 10 8.85542C12.2091 8.85542 14 10.6679 14 12.9036Z" fill="white"/>
</svg>
