<svg width="288" height="288" viewBox="0 0 288 288" fill="none" xmlns="http://www.w3.org/2000/svg">
<path opacity="0.1" d="M233.709 88.408H213.957V96.3825C213.957 107.455 222.863 116.405 233.88 116.405C247.98 116.405 259.854 127.592 260.197 141.763C260.539 156.392 248.837 168.382 234.337 168.382H168.46C126.274 168.382 92.0793 202.747 92.0793 245.144V259.716C92.0793 275.321 104.695 288 120.223 288H170.801C186.328 288 198.944 275.321 198.944 259.716V196.437H234.28C264.079 196.437 288.283 171.939 287.997 141.935C287.712 112.217 263.165 88.5227 233.595 88.5227L233.709 88.408ZM171.2 259.659C171.2 259.831 171.086 259.946 170.915 259.946H120.337C120.165 259.946 120.051 259.831 120.051 259.659V245.087C120.051 218.18 141.801 196.322 168.574 196.322H171.257V259.602L171.2 259.659ZM170.915 0H120.337C104.809 0 92.1935 12.6789 92.1935 28.2837V73.4343C107.55 73.4343 120.051 60.9275 120.051 45.4375V28.2837C120.051 28.1116 120.165 27.9968 120.337 27.9968H170.915C171.086 27.9968 171.2 28.1116 171.2 28.2837V153.409C186.556 153.409 199.058 140.902 199.058 125.412V28.2837C199.058 12.6789 186.442 0 170.915 0ZM28.1433 88.408C12.616 88.408 0 101.087 0 116.692V168.038C0 183.643 12.616 196.322 28.1433 196.322H43.6706C85.8569 196.322 120.051 161.957 120.051 119.56V116.347H156.301C156.301 100.857 143.799 88.3506 128.443 88.3506H28.1433V88.408ZM92.1935 119.618C92.1935 146.524 70.5009 168.382 43.6706 168.382H28.1433C27.972 168.382 27.8579 168.268 27.8579 168.096V116.749C27.8579 116.577 27.972 116.462 28.1433 116.462H92.1935V119.675V119.618Z" fill="#139297"/>
</svg>
