<svg width="20" height="21" viewBox="0 0 20 21" fill="none" xmlns="http://www.w3.org/2000/svg">
<path fill-rule="evenodd" clip-rule="evenodd" d="M0 10.2624V6.15745C0 3.2548 0 1.80348 0.878679 0.901738C1.75736 0 3.17157 0 6 0H14C16.8284 0 18.2426 0 19.1213 0.901737C20 1.80348 20 3.2548 20 6.15745V10.2624C20 13.1651 20 14.6164 19.1213 15.5181C18.4749 16.1815 17.5388 16.3568 15.963 16.4032C15.9593 15.6481 15.7037 14.894 15.1961 14.2828C15.1674 14.2482 15.1501 14.2052 15.1465 14.1599C15.0211 12.5472 13.7733 11.2666 12.2018 11.1379C12.1577 11.1343 12.1158 11.1165 12.0821 11.087C10.8822 10.0377 9.11743 10.0377 7.91755 11.087C7.88386 11.1165 7.84198 11.1343 7.79786 11.1379C6.22638 11.2666 4.9785 12.5472 4.85309 14.1599C4.84957 14.2052 4.83222 14.2482 4.80352 14.2828C4.29595 14.894 4.04033 15.6481 4.03666 16.4032C2.4611 16.3568 1.52501 16.1814 0.878679 15.5181C0 14.6164 0 13.1651 0 10.2624ZM6.25 4.10497C6.25 3.67988 6.58579 3.33529 7 3.33529H13C13.4142 3.33529 13.75 3.67988 13.75 4.10497C13.75 4.53005 13.4142 4.87465 13 4.87465H7C6.58579 4.87465 6.25 4.53005 6.25 4.10497ZM5 6.92713C4.58579 6.92713 4.25 7.27173 4.25 7.69681C4.25 8.1219 4.58579 8.4665 5 8.4665H15C15.4142 8.4665 15.75 8.1219 15.75 7.69681C15.75 7.27173 15.4142 6.92713 15 6.92713H5Z" fill="white"/>
<path fill-rule="evenodd" clip-rule="evenodd" d="M11.1092 12.2587C10.4699 11.6996 9.52972 11.6996 8.89048 12.2587C8.61655 12.4982 8.27595 12.643 7.91719 12.6724C7.07997 12.7409 6.41515 13.4232 6.34834 14.2824C6.31971 14.6506 6.17863 15.0001 5.94519 15.2812C5.40043 15.9372 5.40043 16.9021 5.94519 17.5581C6.17863 17.8393 6.31971 18.1888 6.34834 18.557C6.41515 19.4162 7.07997 20.0984 7.91719 20.167C8.27595 20.1964 8.61655 20.3411 8.89048 20.5807C9.52972 21.1398 10.4699 21.1398 11.1092 20.5807C11.3831 20.3411 11.7237 20.1964 12.0824 20.167C12.9197 20.0984 13.5845 19.4162 13.6513 18.557C13.6799 18.1888 13.821 17.8393 14.0544 17.5581C14.5992 16.9021 14.5992 15.9372 14.0544 15.2812C13.821 15.0001 13.6799 14.6506 13.6513 14.2824C13.5845 13.4232 12.9197 12.7409 12.0824 12.6724C11.7237 12.643 11.3831 12.4982 11.1092 12.2587ZM12.0117 15.9563C12.3146 15.6663 12.3309 15.1792 12.0483 14.8685C11.7657 14.5577 11.2911 14.5409 10.9883 14.831L9.35715 16.3933L9.01174 16.0624C8.70893 15.7724 8.23434 15.7892 7.95171 16.1C7.66909 16.4107 7.68545 16.8978 7.98826 17.1878L8.84541 18.0088C9.13356 18.2848 9.58073 18.2848 9.86889 18.0088L12.0117 15.9563Z" fill="white"/>
</svg>
