<svg width="28" height="28" viewBox="0 0 28 28" fill="none" xmlns="http://www.w3.org/2000/svg">
<path fill-rule="evenodd" clip-rule="evenodd" d="M28 14C28 21.732 21.732 28 14 28C6.26801 28 0 21.732 0 14C0 6.26801 6.26801 0 14 0C21.732 0 28 6.26801 28 14ZM9.75748 9.75751C10.1675 9.34746 10.8324 9.34746 11.2424 9.75751L14 12.5151L16.7575 9.75754C17.1675 9.34749 17.8324 9.34749 18.2424 9.75754C18.6525 10.1676 18.6525 10.8324 18.2424 11.2425L15.4849 14L18.2424 16.7575C18.6524 17.1675 18.6524 17.8324 18.2424 18.2424C17.8323 18.6525 17.1675 18.6525 16.7574 18.2424L14 15.4849L11.2424 18.2424C10.8324 18.6525 10.1676 18.6525 9.75751 18.2424C9.34746 17.8324 9.34746 17.1676 9.75751 16.7575L12.515 14L9.75748 11.2424C9.34743 10.8324 9.34743 10.1676 9.75748 9.75751Z" fill="#139297"/>
</svg>
