<svg width="34" height="34" viewBox="0 0 34 34" fill="none" xmlns="http://www.w3.org/2000/svg">
<path d="M27.5906 10.4371H25.2589V11.3785C25.2589 12.6857 26.3102 13.7422 27.6109 13.7422C29.2755 13.7422 30.6772 15.0629 30.7177 16.7359C30.7581 18.4629 29.3766 19.8785 27.6648 19.8785H19.8876C14.9073 19.8785 10.8705 23.9355 10.8705 28.9406V30.661C10.8705 32.5032 12.3599 34 14.1929 34H20.164C21.997 34 23.4864 32.5032 23.4864 30.661V23.1904H27.658C31.1759 23.1904 34.0334 20.2984 33.9997 16.7562C33.966 13.2478 31.0681 10.4506 27.5772 10.4506L27.5906 10.4371ZM20.2111 30.6542C20.2111 30.6745 20.1976 30.6881 20.1774 30.6881H14.2064C14.1862 30.6881 14.1727 30.6745 14.1727 30.6542V28.9339C14.1727 25.7574 16.7404 23.1769 19.9011 23.1769H20.2179V30.6474L20.2111 30.6542ZM20.1774 0H14.2064C12.3733 0 10.884 1.49681 10.884 3.33904V8.66932C12.6968 8.66932 14.1727 7.19283 14.1727 5.36414V3.33904C14.1727 3.31872 14.1862 3.30518 14.2064 3.30518H20.1774C20.1976 3.30518 20.2111 3.31872 20.2111 3.33904V18.1108C22.024 18.1108 23.4999 16.6343 23.4999 14.8056V3.33904C23.4999 1.49681 22.0105 0 20.1774 0ZM3.32247 10.4371C1.48939 10.4371 0 11.9339 0 13.7761V19.8378C0 21.6801 1.48939 23.1769 3.32247 23.1769H5.15556C10.1359 23.1769 14.1727 19.1199 14.1727 14.1147V13.7355H18.4522C18.4522 11.9068 16.9763 10.4303 15.1634 10.4303H3.32247V10.4371ZM10.884 14.1215C10.884 17.298 8.32302 19.8785 5.15556 19.8785H3.32247C3.30225 19.8785 3.28878 19.8649 3.28878 19.8446V13.7829C3.28878 13.7626 3.30225 13.749 3.32247 13.749H10.884V14.1283V14.1215Z" fill="#139297"/>
</svg>
