<svg width="86" height="86" viewBox="0 0 86 86" fill="none" xmlns="http://www.w3.org/2000/svg">
<rect width="86" height="86" rx="40" fill="#DBFFFF"/>
<rect x="8" y="8" width="70" height="70" rx="35" fill="url(#paint0_linear_2001_716)"/>
<path d="M53.5906 36.4371H51.2589V37.3785C51.2589 38.6857 52.3102 39.7422 53.6109 39.7422C55.2755 39.7422 56.6772 41.0629 56.7177 42.7359C56.7581 44.4629 55.3766 45.8785 53.6648 45.8785H45.8876C40.9073 45.8785 36.8705 49.9355 36.8705 54.9406V56.661C36.8705 58.5032 38.3599 60 40.1929 60H46.164C47.997 60 49.4864 58.5032 49.4864 56.661V49.1904H53.658C57.1759 49.1904 60.0334 46.2984 59.9997 42.7562C59.966 39.2478 57.0681 36.4506 53.5772 36.4506L53.5906 36.4371ZM46.2111 56.6542C46.2111 56.6745 46.1976 56.6881 46.1774 56.6881H40.2064C40.1862 56.6881 40.1727 56.6745 40.1727 56.6542V54.9339C40.1727 51.7574 42.7404 49.1769 45.9011 49.1769H46.2179V56.6474L46.2111 56.6542ZM46.1774 26H40.2064C38.3733 26 36.884 27.4968 36.884 29.339V34.6693C38.6968 34.6693 40.1727 33.1928 40.1727 31.3641V29.339C40.1727 29.3187 40.1862 29.3052 40.2064 29.3052H46.1774C46.1976 29.3052 46.2111 29.3187 46.2111 29.339V44.1108C48.024 44.1108 49.4999 42.6343 49.4999 40.8056V29.339C49.4999 27.4968 48.0105 26 46.1774 26ZM29.3225 36.4371C27.4894 36.4371 26 37.9339 26 39.7761V45.8378C26 47.6801 27.4894 49.1769 29.3225 49.1769H31.1556C36.1359 49.1769 40.1727 45.1199 40.1727 40.1147V39.7355H44.4522C44.4522 37.9068 42.9763 36.4303 41.1634 36.4303H29.3225V36.4371ZM36.884 40.1215C36.884 43.298 34.323 45.8785 31.1556 45.8785H29.3225C29.3023 45.8785 29.2888 45.8649 29.2888 45.8446V39.7829C29.2888 39.7626 29.3023 39.749 29.3225 39.749H36.884V40.1283V40.1215Z" fill="white"/>
<defs>
<linearGradient id="paint0_linear_2001_716" x1="8" y1="43" x2="78" y2="43" gradientUnits="userSpaceOnUse">
<stop stop-color="#00737A"/>
<stop offset="1" stop-color="#01B8B4"/>
</linearGradient>
</defs>
</svg>
