<svg width="24" height="24" viewBox="0 0 24 24" fill="none" xmlns="http://www.w3.org/2000/svg">
<path d="M7.72931 5.20545L8.56018 6.69421C9.31 8.03774 9.00899 9.80022 7.82804 10.9812C7.82804 10.9812 6.39559 12.4136 8.99277 15.0108C11.5899 17.6079 13.0224 16.1755 13.0224 16.1755C14.2034 14.9945 15.9659 14.6935 17.3094 15.4434L18.7982 16.2742C20.827 17.4064 21.0666 20.2515 19.2833 22.0348C18.2118 23.1063 16.8991 23.94 15.448 23.995C13.0053 24.0876 8.85677 23.4694 4.69539 19.3081C0.534006 15.1468 -0.0842184 10.9983 0.00838741 8.55558C0.0633979 7.10451 0.897167 5.79185 1.9687 4.72034C3.75195 2.93711 6.59709 3.1767 7.72931 5.20545Z" fill="#139297"/>
<path d="M11.854 0.806299C11.9387 0.282845 12.4336 -0.0722445 12.957 0.0125003C12.9894 0.0187026 13.0937 0.0381874 13.1483 0.0503525C13.2575 0.07468 13.4099 0.112135 13.5999 0.167473C13.9798 0.278135 14.5106 0.460439 15.1477 0.752495C16.4231 1.33722 18.1204 2.3601 19.8817 4.12137C21.643 5.88265 22.6659 7.57993 23.2506 8.85535C23.5427 9.49238 23.725 10.0232 23.8357 10.4031C23.891 10.5931 23.9284 10.7454 23.9528 10.8547C23.9649 10.9093 23.9738 10.9532 23.98 10.9856L23.9874 11.0255C24.0721 11.549 23.7203 12.0643 23.1968 12.149C22.6749 12.2335 22.1831 11.8801 22.0963 11.3591C22.0936 11.3451 22.0863 11.3076 22.0784 11.2721C22.0626 11.2012 22.0353 11.0888 21.992 10.9401C21.9053 10.6427 21.7549 10.2006 21.505 9.65562C21.006 8.56707 20.1086 7.0639 18.5238 5.47921C16.9391 3.89452 15.4359 2.99712 14.3474 2.49806C13.8024 2.24823 13.3603 2.09776 13.0629 2.01113C12.9142 1.96782 12.7273 1.92492 12.6564 1.90913C12.1354 1.82231 11.7695 1.32826 11.854 0.806299Z" fill="#139297"/>
<path fill-rule="evenodd" clip-rule="evenodd" d="M12.1436 5.22224C12.2893 4.71238 12.8207 4.41714 13.3306 4.56282L13.0668 5.48601C13.3306 4.56282 13.3306 4.56282 13.3306 4.56282L13.3324 4.56335L13.3344 4.56391L13.3387 4.56516L13.3486 4.56812L13.3739 4.57601C13.3932 4.58219 13.4173 4.59023 13.4461 4.60043C13.5036 4.62083 13.5796 4.64984 13.6728 4.68979C13.8593 4.76972 14.1141 4.89315 14.4271 5.07841C15.0537 5.44926 15.9092 6.06525 16.9141 7.07016C17.919 8.07506 18.535 8.93047 18.9059 9.55707C19.0911 9.87009 19.2146 10.1249 19.2945 10.3114C19.3344 10.4046 19.3634 10.4806 19.3838 10.5381C19.394 10.5669 19.4021 10.591 19.4083 10.6103L19.4161 10.6356L19.4191 10.6455L19.4204 10.6498L19.4209 10.6518C19.4209 10.6518 19.4215 10.6536 18.4982 10.9174L19.4215 10.6536C19.5671 11.1635 19.2719 11.6949 18.762 11.8406C18.2565 11.985 17.7297 11.696 17.5788 11.1941L17.5741 11.1803C17.5673 11.161 17.5532 11.1232 17.5294 11.0679C17.4821 10.9573 17.3962 10.7765 17.2533 10.5351C16.9678 10.0528 16.4523 9.32406 15.5562 8.428C14.6601 7.53193 13.9314 7.01639 13.4491 6.73095C13.2077 6.58806 13.0269 6.50217 12.9163 6.4548C12.861 6.43109 12.8231 6.41697 12.8039 6.41014L12.7901 6.40541C12.2882 6.25451 11.9992 5.72778 12.1436 5.22224Z" fill="#139297"/>
</svg>
