<svg width="99" height="289" viewBox="0 0 99 289" fill="none" xmlns="http://www.w3.org/2000/svg">
<path opacity="0.2" d="M0 88.2079L2.38144 70.2907C7.59794 70.7501 11.7371 69.8313 14.799 67.5342C17.8608 65.352 19.9021 62.1935 20.9227 58.0587C22.0567 54.0388 22.3402 49.4447 21.7732 44.2762H0V0H42.0155V45.999C42.0155 61.0449 38.5 72.4155 31.4691 80.1107C24.4381 87.8059 13.9485 90.505 0 88.2079ZM56.9845 88.2079L59.366 70.2907C64.5825 70.7501 68.7216 69.8313 71.7835 67.5342C74.8454 65.352 76.8866 62.1935 77.9072 58.0587C79.0412 54.0388 79.3247 49.4447 78.7577 44.2762H56.9845V0H99V45.999C99 61.0449 95.4845 72.4155 88.4536 80.1107C81.4227 87.8059 70.933 90.505 56.9845 88.2079Z" fill="white"/>
<path opacity="0.2" d="M0 188.208L2.38144 170.291C7.59794 170.75 11.7371 169.831 14.799 167.534C17.8608 165.352 19.9021 162.193 20.9227 158.059C22.0567 154.039 22.3402 149.445 21.7732 144.276H0V100H42.0155V145.999C42.0155 161.045 38.5 172.415 31.4691 180.111C24.4381 187.806 13.9485 190.505 0 188.208ZM56.9845 188.208L59.366 170.291C64.5825 170.75 68.7216 169.831 71.7835 167.534C74.8454 165.352 76.8866 162.193 77.9072 158.059C79.0412 154.039 79.3247 149.445 78.7577 144.276H56.9845V100H99V145.999C99 161.045 95.4845 172.415 88.4536 180.111C81.4227 187.806 70.933 190.505 56.9845 188.208Z" fill="white"/>
<path opacity="0.2" d="M0 288.208L2.38144 270.291C7.59794 270.75 11.7371 269.831 14.799 267.534C17.8608 265.352 19.9021 262.193 20.9227 258.059C22.0567 254.039 22.3402 249.445 21.7732 244.276H0V200H42.0155V245.999C42.0155 261.045 38.5 272.415 31.4691 280.111C24.4381 287.806 13.9485 290.505 0 288.208ZM56.9845 288.208L59.366 270.291C64.5825 270.75 68.7216 269.831 71.7835 267.534C74.8454 265.352 76.8866 262.193 77.9072 258.059C79.0412 254.039 79.3247 249.445 78.7577 244.276H56.9845V200H99V245.999C99 261.045 95.4845 272.415 88.4536 280.111C81.4227 287.806 70.933 290.505 56.9845 288.208Z" fill="white"/>
</svg>
