<svg width="284" height="284" viewBox="0 0 284 284" fill="none" xmlns="http://www.w3.org/2000/svg">
<path d="M202.764 202.136C236.009 168.891 236.009 114.99 202.764 81.745C169.519 48.5 115.618 48.4999 82.3733 81.7449C49.1282 114.99 49.1281 168.891 82.3732 202.136C115.618 235.381 169.519 235.381 202.764 202.136Z" fill="url(#paint0_linear_93_2732)"/>
<path d="M148.162 0.142578L145.187 44.6194L149.153 44.9027L154.819 0.850808L148.162 0.142578Z" fill="white" fill-opacity="0.5"/>
<path d="M156.944 0.848633L151.278 44.9005L155.244 45.6087L163.743 1.84026L156.944 0.848633Z" fill="white" fill-opacity="0.5"/>
<path d="M165.867 1.98438L157.369 45.753L161.335 46.6028L172.383 3.54245L165.867 1.98438Z" fill="white" fill-opacity="0.5"/>
<path d="M174.65 3.8252L163.46 46.8856L167.284 48.0188L181.024 5.66666L174.65 3.8252Z" fill="white" fill-opacity="0.5"/>
<path d="M183.148 6.09082L169.267 48.4428L173.091 49.8593L189.522 8.49873L183.148 6.09082Z" fill="white" fill-opacity="0.5"/>
<path d="M191.647 9.06543L175.074 50.2844L178.899 51.984L197.879 11.7567L191.647 9.06543Z" fill="white" fill-opacity="0.5"/>
<path d="M199.862 12.3242L180.882 52.5517L184.423 54.3932L205.953 15.4405L199.862 12.3242Z" fill="white" fill-opacity="0.5"/>
<path d="M207.936 16.29L186.406 55.2427L189.805 57.2257L213.744 19.6896L207.936 16.29Z" fill="white" fill-opacity="0.5"/>
<path d="M215.727 20.6797L191.789 58.2159L195.046 60.4822L221.251 24.5042L215.727 20.6797Z" fill="white" fill-opacity="0.5"/>
<path d="M223.234 25.4961L196.888 61.4742L200.146 63.8821L228.475 29.7455L223.234 25.4961Z" fill="white" fill-opacity="0.5"/>
<path d="M230.317 30.8789L201.846 65.0155L204.82 67.7068L235.416 35.4115L230.317 30.8789Z" fill="white" fill-opacity="0.5"/>
<path d="M237.116 36.6865L206.52 68.9817L209.353 71.8146L241.931 41.5025L237.116 36.6865Z" fill="white" fill-opacity="0.5"/>
<path d="M243.49 42.7773L211.052 73.2312L213.744 76.2059L248.022 47.8767L243.49 42.7773Z" fill="white" fill-opacity="0.5"/>
<path d="M249.58 49.4355L215.16 77.6231L217.71 80.8809L253.688 54.818L249.58 49.4355Z" fill="white" fill-opacity="0.5"/>
<path d="M255.246 56.374L219.126 82.4367L221.392 85.6947L258.929 61.8981L255.246 56.374Z" fill="white" fill-opacity="0.5"/>
<path d="M260.345 63.5996L222.667 87.396L224.792 90.7956L263.744 69.4071L260.345 63.5996Z" fill="white" fill-opacity="0.5"/>
<path d="M265.02 71.2471L225.925 92.494L227.767 96.1767L268.136 77.1961L265.02 71.2471Z" fill="white" fill-opacity="0.5"/>
<path d="M269.269 79.0381L228.9 97.8769L230.458 101.56L271.96 85.2704L269.269 79.0381Z" fill="white" fill-opacity="0.5"/>
<path d="M272.951 87.2539L231.591 103.402L232.866 107.226L275.218 93.628L272.951 87.2539Z" fill="white" fill-opacity="0.5"/>
<path d="M276.068 95.4688L233.716 109.208L234.849 113.033L278.051 101.984L276.068 95.4688Z" fill="white" fill-opacity="0.5"/>
<path d="M278.759 103.969L235.699 115.017L236.549 118.842L280.176 110.626L278.759 103.969Z" fill="white" fill-opacity="0.5"/>
<path d="M280.884 112.75L237.115 120.966L237.823 124.932L281.875 119.407L280.884 112.75Z" fill="white" fill-opacity="0.5"/>
<path d="M282.442 121.533L238.248 126.916L238.673 130.882L283.009 128.19L282.442 121.533Z" fill="white" fill-opacity="0.5"/>
<path d="M283.434 130.314L239.098 133.006V136.972L283.717 137.114L283.434 130.314Z" fill="white" fill-opacity="0.5"/>
<path d="M284 139.238L239.381 139.097L239.24 143.204L283.717 146.037L284 139.238Z" fill="white" fill-opacity="0.5"/>
<path d="M283.859 148.161L239.382 145.187L238.957 149.294L283.15 154.96L283.859 148.161Z" fill="white" fill-opacity="0.5"/>
<path d="M283.15 157.086L238.957 151.42L238.39 155.386L282.017 163.743L283.15 157.086Z" fill="white" fill-opacity="0.5"/>
<path d="M281.875 165.868L238.248 157.511L237.399 161.335L280.459 172.525L281.875 165.868Z" fill="white" fill-opacity="0.5"/>
<path d="M280.176 174.65L237.115 163.46L235.982 167.284L278.193 181.166L280.176 174.65Z" fill="white" fill-opacity="0.5"/>
<path d="M277.768 183.29L235.557 169.408L234.141 173.233L275.501 189.664L277.768 183.29Z" fill="white" fill-opacity="0.5"/>
<path d="M274.935 191.788L233.716 175.216L232.016 178.899L272.243 197.879L274.935 191.788Z" fill="white" fill-opacity="0.5"/>
<path d="M271.535 200.004L231.45 180.882L229.608 184.423L268.561 205.953L271.535 200.004Z" fill="white" fill-opacity="0.5"/>
<path d="M267.711 207.936L228.758 186.405L226.633 189.946L264.17 213.885L267.711 207.936Z" fill="white" fill-opacity="0.5"/>
<path d="M263.32 215.727L225.784 191.789L223.517 195.189L259.495 221.393L263.32 215.727Z" fill="white" fill-opacity="0.5"/>
<path d="M258.504 223.234L222.526 197.029L219.976 200.146L254.254 228.616L258.504 223.234Z" fill="white" fill-opacity="0.5"/>
<path d="M253.121 230.458L218.843 201.987L216.293 204.962L248.589 235.416L253.121 230.458Z" fill="white" fill-opacity="0.5"/>
<path d="M247.314 237.258L215.019 206.662L212.186 209.495L242.498 241.932L247.314 237.258Z" fill="white" fill-opacity="0.5"/>
<path d="M241.223 243.631L210.769 211.053L207.794 213.744L235.982 248.022L241.223 243.631Z" fill="white" fill-opacity="0.5"/>
<path d="M234.566 249.721L206.378 215.301L203.12 217.709L229.183 253.828L234.566 249.721Z" fill="white" fill-opacity="0.5"/>
<path d="M227.625 255.246L201.562 219.126L198.304 221.392L221.959 259.07L227.625 255.246Z" fill="white" fill-opacity="0.5"/>
<path d="M220.401 260.487L196.605 222.81L193.205 224.792L214.452 263.887L220.401 260.487Z" fill="white" fill-opacity="0.5"/>
<path d="M212.752 265.16L191.505 226.066L187.823 227.908L206.661 268.135L212.752 265.16Z" fill="white" fill-opacity="0.5"/>
<path d="M204.962 269.27L186.123 229.042L182.44 230.6L198.729 271.961L204.962 269.27Z" fill="white" fill-opacity="0.5"/>
<path d="M196.746 272.952L180.599 231.592L176.774 233.008L190.372 275.219L196.746 272.952Z" fill="white" fill-opacity="0.5"/>
<path d="M188.389 276.209L174.791 233.857L170.966 234.99L181.873 278.051L188.389 276.209Z" fill="white" fill-opacity="0.5"/>
<path d="M179.89 278.901L168.983 235.699L165.017 236.549L173.375 280.318L179.89 278.901Z" fill="white" fill-opacity="0.5"/>
<path d="M171.25 281.026L163.035 237.258L159.068 237.824L164.592 282.018L171.25 281.026Z" fill="white" fill-opacity="0.5"/>
<path d="M162.468 282.584L157.086 238.391L152.978 238.674L155.669 283.151L162.468 282.584Z" fill="white" fill-opacity="0.5"/>
<path d="M153.686 283.574L150.995 239.098L146.887 239.239V283.716L153.686 283.574Z" fill="white" fill-opacity="0.5"/>
<path d="M144.762 284L144.904 239.524L140.796 239.382L137.963 283.717L144.762 284Z" fill="white" fill-opacity="0.5"/>
<path d="M135.839 283.858L138.672 239.523L134.705 239.098L129.04 283.291L135.839 283.858Z" fill="white" fill-opacity="0.5"/>
<path d="M126.915 283.292L132.581 239.099L128.615 238.391L120.258 282.159L126.915 283.292Z" fill="white" fill-opacity="0.5"/>
<path d="M117.991 282.016L126.49 238.247L122.665 237.397L111.475 280.458L117.991 282.016Z" fill="white" fill-opacity="0.5"/>
<path d="M109.351 280.176L120.541 237.115L116.717 235.982L102.835 278.334L109.351 280.176Z" fill="white" fill-opacity="0.5"/>
<path d="M100.71 277.91L114.592 235.558L110.767 234.283L94.3363 275.644L100.71 277.91Z" fill="white" fill-opacity="0.5"/>
<path d="M92.2115 275.077L108.784 233.716L105.101 232.158L85.9789 272.386L92.2115 275.077Z" fill="white" fill-opacity="0.5"/>
<path d="M83.9961 271.677L103.118 231.45L99.4354 229.608L77.9053 268.561L83.9961 271.677Z" fill="white" fill-opacity="0.5"/>
<path d="M75.9222 267.71L97.5941 228.899L94.053 226.774L70.1146 264.311L75.9222 267.71Z" fill="white" fill-opacity="0.5"/>
<path d="M68.2731 263.321L92.2115 225.927L88.8118 223.66L62.6073 259.497L68.2731 263.321Z" fill="white" fill-opacity="0.5"/>
<path d="M60.7663 258.504L86.9708 222.526L83.8543 220.118L55.3837 254.397L60.7663 258.504Z" fill="white" fill-opacity="0.5"/>
<path d="M53.5423 253.121L82.0132 218.984L79.0385 216.293L48.4429 248.73L53.5423 253.121Z" fill="white" fill-opacity="0.5"/>
<path d="M46.7431 247.454L77.3387 215.017L74.5058 212.185L41.9272 242.638L46.7431 247.454Z" fill="white" fill-opacity="0.5"/>
<path d="M40.369 241.223L72.8062 210.91L70.2565 207.794L35.8364 236.123L40.369 241.223Z" fill="white" fill-opacity="0.5"/>
<path d="M34.2782 234.707L68.6983 206.378L66.2904 203.262L30.1707 229.324L34.2782 234.707Z" fill="white" fill-opacity="0.5"/>
<path d="M28.7542 227.767L64.7321 201.704L62.6074 198.305L24.9298 222.101L28.7542 227.767Z" fill="white" fill-opacity="0.5"/>
<path d="M23.5134 220.402L61.191 196.747L59.2081 193.206L20.1136 214.595L23.5134 220.402Z" fill="white" fill-opacity="0.5"/>
<path d="M18.839 212.894L57.9334 191.505L56.0919 187.964L15.8643 206.803L18.839 212.894Z" fill="white" fill-opacity="0.5"/>
<path d="M14.5895 204.961L54.9586 186.122L53.4003 182.439L12.0398 198.729L14.5895 204.961Z" fill="white" fill-opacity="0.5"/>
<path d="M10.9068 196.888L52.4091 180.599L50.9926 176.774L8.64062 190.514L10.9068 196.888Z" fill="white" fill-opacity="0.5"/>
<path d="M7.79056 188.53L50.1429 174.932L49.0097 170.966L5.9491 182.014L7.79056 188.53Z" fill="white" fill-opacity="0.5"/>
<path d="M5.09944 180.031L48.3015 169.124L47.4514 165.158L3.68298 173.374L5.09944 180.031Z" fill="white" fill-opacity="0.5"/>
<path d="M2.97461 171.392L46.7431 163.177L46.1766 159.211L1.98315 164.593L2.97461 171.392Z" fill="white" fill-opacity="0.5"/>
<path d="M1.4163 162.609L45.6098 157.084L45.1851 153.118L0.849854 155.809L1.4163 162.609Z" fill="white" fill-opacity="0.5"/>
<path d="M0.424987 153.687L44.9017 150.995L44.7602 147.029L0.283203 146.888L0.424987 153.687Z" fill="white" fill-opacity="0.5"/>
<path d="M0 144.762L44.477 144.904L44.6185 140.937L0.141784 137.963L0 144.762Z" fill="white" fill-opacity="0.5"/>
<path d="M0.141724 135.838L44.477 138.813L44.9016 134.847L0.708169 129.181L0.141724 135.838Z" fill="white" fill-opacity="0.5"/>
<path d="M0.70813 126.916L44.9016 132.724L45.4684 128.758L1.84137 120.259L0.70813 126.916Z" fill="white" fill-opacity="0.5"/>
<path d="M1.98315 118.133L45.6098 126.632L46.6016 122.666L3.54105 111.476L1.98315 118.133Z" fill="white" fill-opacity="0.5"/>
<path d="M3.68298 109.35L46.7432 120.54L48.0182 116.715L5.66589 102.834L3.68298 109.35Z" fill="white" fill-opacity="0.5"/>
<path d="M6.09082 100.71L48.3014 114.591L49.7178 110.909L8.35729 94.3359L6.09082 100.71Z" fill="white" fill-opacity="0.5"/>
<path d="M8.92383 92.3524L50.2844 108.783L51.8426 105.101L11.615 86.1201L8.92383 92.3524Z" fill="white" fill-opacity="0.5"/>
<path d="M12.3231 84.1377L52.5508 103.118L54.3922 99.5772L15.4396 78.0469L12.3231 84.1377Z" fill="white" fill-opacity="0.5"/>
<path d="M16.1478 76.0633L55.1005 97.5936L57.2251 94.1941L19.689 70.2559L16.1478 76.0633Z" fill="white" fill-opacity="0.5"/>
<path d="M20.5386 68.2731L58.0747 92.2113L60.3412 88.9535L24.3629 62.749L20.5386 68.2731Z" fill="white" fill-opacity="0.5"/>
<path d="M25.4962 60.7664L61.3327 87.1125L63.8824 83.8546L29.6042 55.5254L25.4962 60.7664Z" fill="white" fill-opacity="0.5"/>
<path d="M30.7369 53.6842L65.0155 82.155L67.7067 79.0388L35.2699 48.585L30.7369 53.6842Z" fill="white" fill-opacity="0.5"/>
<path d="M36.5448 46.8853L68.8401 77.3392L71.8145 74.5063L41.3606 42.0693L36.5448 46.8853Z" fill="white" fill-opacity="0.5"/>
<path d="M42.7769 40.3695L73.0893 72.9481L76.2054 70.2568L47.8762 35.9785L42.7769 40.3695Z" fill="white" fill-opacity="0.5"/>
<path d="M49.2928 34.4203L77.622 68.6985L80.7382 66.2906L54.6755 30.3125L49.2928 34.4203Z" fill="white" fill-opacity="0.5"/>
<path d="M56.2333 28.7542L82.2963 64.8739L85.6957 62.6075L61.8991 24.9297L56.2333 28.7542Z" fill="white" fill-opacity="0.5"/>
<path d="M63.5991 23.6552L87.2539 61.3332L90.7951 59.2085L69.4064 20.2559L63.5991 23.6552Z" fill="white" fill-opacity="0.5"/>
<path d="M71.1062 18.9815L92.4949 57.9342L96.036 56.2343L77.197 15.8652L71.1062 18.9815Z" fill="white" fill-opacity="0.5"/>
<path d="M79.0386 14.7313L97.8776 55.1004L101.56 53.4006L85.2709 12.04L79.0386 14.7313Z" fill="white" fill-opacity="0.5"/>
<path d="M87.1122 11.0487L103.401 52.4092L107.226 51.1344L93.4862 8.78223L87.1122 11.0487Z" fill="white" fill-opacity="0.5"/>
<path d="M95.4696 7.79069L109.067 50.1429L112.892 49.1512L101.985 5.94922L95.4696 7.79069Z" fill="white" fill-opacity="0.5"/>
<path d="M103.968 5.23971L114.875 48.3001L118.841 47.4503L110.626 3.68164L103.968 5.23971Z" fill="white" fill-opacity="0.5"/>
<path opacity="0.2" d="M112.609 3.11744L120.824 46.7445L124.79 46.1778L119.266 1.98438L112.609 3.11744Z" fill="url(#paint1_linear_93_2732)"/>
<path opacity="0.2" d="M121.391 1.55686L126.915 45.6087L130.881 45.3255L128.19 0.848633L121.391 1.55686Z" fill="url(#paint2_linear_93_2732)"/>
<path opacity="0.2" d="M130.314 0.424987L133.006 44.9017L136.971 44.7601L137.113 0.283203L130.314 0.424987Z" fill="url(#paint3_linear_93_2732)"/>
<path d="M139.238 0L139.096 44.4769L143.062 44.6185L145.895 0.283223L139.238 0Z" fill="white" fill-opacity="0.5"/>
<defs>
<linearGradient id="paint0_linear_93_2732" x1="57.3826" y1="141.9" x2="227.641" y2="141.9" gradientUnits="userSpaceOnUse">
<stop stop-color="white"/>
<stop offset="1" stop-color="#E6E6E6"/>
</linearGradient>
<linearGradient id="paint1_linear_93_2732" x1="112.609" y1="24.3644" x2="124.79" y2="24.3644" gradientUnits="userSpaceOnUse">
<stop stop-color="white"/>
<stop offset="1" stop-color="#E6E6E6"/>
</linearGradient>
<linearGradient id="paint2_linear_93_2732" x1="121.391" y1="23.2287" x2="130.881" y2="23.2287" gradientUnits="userSpaceOnUse">
<stop stop-color="white"/>
<stop offset="1" stop-color="#E6E6E6"/>
</linearGradient>
<linearGradient id="paint3_linear_93_2732" x1="130.314" y1="22.6633" x2="137.113" y2="22.6633" gradientUnits="userSpaceOnUse">
<stop stop-color="white"/>
<stop offset="1" stop-color="#E6E6E6"/>
</linearGradient>
</defs>
</svg>
