<svg width="20" height="14" viewBox="0 0 20 14" fill="none" xmlns="http://www.w3.org/2000/svg">
<path d="M10.8842 13.3C4.11934 13.3 0.26075 8.57022 0.0999756 0.699951H3.48861C3.59991 6.47653 6.0981 8.92337 8.07687 9.42788V0.699951H11.2676V5.68193C13.2217 5.46752 15.2746 3.19725 15.9672 0.699951H19.1579C18.897 1.99512 18.3767 3.22144 17.6298 4.3022C16.8829 5.38297 15.9253 6.29492 14.817 6.98103C16.0542 7.60795 17.1469 8.4953 18.023 9.58452C18.8992 10.6737 19.5389 11.9401 19.9 13.3H16.3877C16.0636 12.1188 15.4048 11.0615 14.494 10.2605C13.5832 9.45951 12.4609 8.9505 11.2676 8.79725V13.3H10.8842Z" fill="white"/>
</svg>
