<svg width="22" height="22" viewBox="0 0 22 22" fill="none" xmlns="http://www.w3.org/2000/svg">
<path d="M14.8708 15.9514C15.0633 15.8013 15.2379 15.6267 15.5871 15.2775L19.9402 10.9244C20.0455 10.8191 19.9973 10.6379 19.8567 10.5891C19.3429 10.4108 18.6744 10.0761 18.0492 9.45085C17.4239 8.82559 17.0892 8.15717 16.911 7.64334C16.8622 7.50272 16.6809 7.45456 16.5757 7.5598L12.2225 11.9129L12.2225 11.913C11.8733 12.2621 11.6987 12.4367 11.5486 12.6292C11.3715 12.8563 11.2196 13.102 11.0957 13.362C10.9907 13.5824 10.9126 13.8166 10.7564 14.2851L10.5547 14.8904L10.2338 15.853L9.93297 16.7555C9.85612 16.9861 9.91612 17.2402 10.088 17.4121C10.2598 17.5839 10.514 17.6439 10.7445 17.5671L11.647 17.2662L12.6096 16.9454L13.2149 16.7436L13.215 16.7436C13.6834 16.5874 13.9176 16.5093 14.138 16.4043C14.398 16.2804 14.6437 16.1286 14.8708 15.9514Z" fill="white"/>
<path d="M21.3032 9.5614C22.2323 8.6323 22.2323 7.12593 21.3032 6.19683C20.3741 5.26772 18.8677 5.26772 17.9386 6.19683L17.7987 6.33678C17.6636 6.47182 17.6024 6.66046 17.6362 6.84844C17.6574 6.9667 17.6967 7.13958 17.7683 7.34588C17.9115 7.75845 18.1818 8.30003 18.6909 8.80915C19.2 9.31827 19.7416 9.58857 20.1541 9.73171C20.3604 9.80328 20.5333 9.84262 20.6516 9.86385C20.8396 9.89759 21.0282 9.8364 21.1632 9.70135L21.3032 9.5614Z" fill="white"/>
<path fill-rule="evenodd" clip-rule="evenodd" d="M1.28873 1.28873C0 2.57746 0 4.65164 0 8.8V13.2C0 17.3484 0 19.4225 1.28873 20.7113C2.57746 22 4.65164 22 8.8 22H11C15.1484 22 17.2225 22 18.5113 20.7113C19.7793 19.4432 19.7997 17.4147 19.8 13.3981L16.6999 16.4982C16.4031 16.7952 16.1601 17.0384 15.8856 17.2525C15.564 17.5033 15.2161 17.7183 14.8479 17.8938C14.5337 18.0436 14.2075 18.1522 13.8092 18.2848L11.2663 19.1324C10.4429 19.4069 9.53501 19.1926 8.92125 18.5788C8.30749 17.965 8.09318 17.0572 8.36766 16.2337L8.6685 15.3312L9.19113 13.7633L9.21524 13.6909C9.34786 13.2926 9.45647 12.9664 9.60624 12.6521C9.78169 12.284 9.99674 11.936 10.2476 11.6144C10.4617 11.3399 10.7049 11.0969 11.0019 10.8001L15.4089 6.39307L16.632 5.17005L16.7719 5.0301C17.5589 4.24316 18.5903 3.84979 19.6218 3.85C19.4553 2.7164 19.1335 1.911 18.5113 1.28873C17.2225 0 15.1484 0 11 0H8.8C4.65164 0 2.57746 0 1.28873 1.28873ZM4.675 7.7C4.675 7.24437 5.04436 6.875 5.5 6.875H12.65C13.1056 6.875 13.475 7.24437 13.475 7.7C13.475 8.15563 13.1056 8.525 12.65 8.525H5.5C5.04436 8.525 4.675 8.15563 4.675 7.7ZM4.675 12.1C4.675 11.6444 5.04436 11.275 5.5 11.275H8.25C8.70563 11.275 9.075 11.6444 9.075 12.1C9.075 12.5556 8.70563 12.925 8.25 12.925H5.5C5.04436 12.925 4.675 12.5556 4.675 12.1ZM4.675 16.5C4.675 16.0444 5.04436 15.675 5.5 15.675H7.15C7.60563 15.675 7.975 16.0444 7.975 16.5C7.975 16.9556 7.60563 17.325 7.15 17.325H5.5C5.04436 17.325 4.675 16.9556 4.675 16.5Z" fill="white"/>
</svg>
