<svg width="22" height="20" viewBox="0 0 22 20" fill="none" xmlns="http://www.w3.org/2000/svg">
<path d="M15.9865 16.8119H5.37497C5.30682 16.8119 5.27274 16.8119 5.24184 16.8114C5.23623 16.8114 5.23061 16.8113 5.225 16.8112V17.9708V19.1309C5.225 19.6111 4.85563 20.0005 4.4 20.0005C3.94436 20.0005 3.575 19.6111 3.575 19.1309V16.4358C2.66333 16.0162 1.93681 15.2711 1.58617 14.33C1.57594 14.3025 1.56517 14.2721 1.54363 14.2112L0.11031 10.1616C-0.346837 8.86996 0.673951 7.53613 2.11958 7.53613C3.01092 7.53613 3.80687 8.06171 4.11069 8.85089L5.31862 11.9885C5.42855 12.274 5.48352 12.4168 5.56318 12.5335C5.74921 12.8061 6.04139 12.999 6.37688 13.0708C6.52055 13.1016 6.6818 13.1016 7.00432 13.1016H14.6814C15.3074 13.1016 15.6204 13.1016 15.8822 12.9879C16.0251 12.9258 16.155 12.84 16.2657 12.7346C16.4684 12.5416 16.5751 12.2645 16.7885 11.7102L17.8893 8.85089C18.1931 8.06171 18.9891 7.53613 19.8804 7.53613C21.326 7.53613 22.3468 8.86996 21.8897 10.1616L20.6583 13.6406C20.4437 14.247 20.3364 14.5502 20.1946 14.808C19.8009 15.5239 19.1761 16.0902 18.425 16.4357V19.1309C18.425 19.6111 18.0556 20.0005 17.6 20.0005C17.1444 20.0005 16.775 19.6111 16.775 19.1309V16.8066C16.5697 16.8119 16.3187 16.8119 15.9865 16.8119Z" fill="white"/>
<path d="M12.3594 2.35814e-07H9.64083C8.42964 -1.1014e-05 7.4673 -1.99554e-05 6.71345 0.101725C5.93828 0.206346 5.30072 0.427504 4.79403 0.936158C4.28356 1.4486 4.05813 2.09982 3.95215 2.89112C3.85007 3.65334 3.85008 4.62407 3.8501 5.83528V6.8557L4.08163 7.02903C4.53884 7.37131 4.90824 7.83879 5.1302 8.41533L6.48807 11.9424L14.6816 11.9425C14.8403 11.9425 14.969 11.9425 15.0813 11.9409L15.0835 11.9408L15.5101 11.9328L15.649 11.5845C15.6835 11.4978 15.7221 11.3976 15.7695 11.2747L16.8703 8.41533C17.0922 7.83888 17.4615 7.37146 17.9186 7.0292L18.1501 6.85588V5.83532C18.1501 4.62409 18.1501 3.65335 18.048 2.89112C17.9421 2.09982 17.7166 1.4486 17.2062 0.936158C16.6995 0.427504 16.0619 0.206346 15.2867 0.101725C14.5329 -1.99554e-05 13.5706 -1.1014e-05 12.3594 2.35814e-07Z" fill="white"/>
</svg>
