<svg width="20" height="24" viewBox="0 0 20 24" fill="none" xmlns="http://www.w3.org/2000/svg">
<ellipse cx="9.38179" cy="4.8" rx="4.94551" ry="4.8" fill="white"/>
<path fill-rule="evenodd" clip-rule="evenodd" d="M11.2519 23.3845C11.8856 23.9996 12.9056 23.9996 14.9455 23.9996C16.9854 23.9996 18.0054 23.9996 18.6391 23.3845C19.2728 22.7695 19.2728 21.7795 19.2728 19.7996C19.2728 17.8197 19.2728 16.8298 18.6391 16.2147C18.0054 15.5996 16.9854 15.5996 14.9455 15.5996C12.9056 15.5996 11.8856 15.5996 11.2519 16.2147C10.6182 16.8298 10.6182 17.8197 10.6182 19.7996C10.6182 21.7795 10.6182 22.7695 11.2519 23.3845ZM13.742 21.5714C12.874 20.9681 11.8545 20.2596 11.8545 19.0313C11.8545 17.6754 13.5546 16.7139 14.9455 18.0174C16.3364 16.7139 18.0364 17.6754 18.0364 19.0313C18.0364 20.2596 17.017 20.9681 16.149 21.5714C16.0588 21.6341 15.9702 21.6956 15.8846 21.7565C15.5637 21.9847 15.2546 22.1996 14.9455 22.1996C14.6364 22.1996 14.3273 21.9847 14.0064 21.7565C13.9208 21.6956 13.8322 21.6341 13.742 21.5714Z" fill="white"/>
<path d="M13.6038 13.8081C12.355 13.4203 10.915 13.1992 9.38194 13.1992C4.60211 13.1992 0.727295 15.3483 0.727295 17.9992C0.727295 20.5679 4.36526 22.6653 8.93949 22.7931C8.90591 22.6415 8.87999 22.4911 8.85953 22.3433C8.76349 21.6501 8.76362 20.803 8.76376 19.9024V19.696C8.76362 18.7954 8.76349 17.9484 8.85953 17.2551C8.96639 16.4836 9.22181 15.6392 9.94069 14.9415C10.6596 14.2438 11.5296 13.9959 12.3244 13.8921C12.7101 13.8418 13.142 13.8187 13.6038 13.8081Z" fill="white"/>
</svg>
