<svg width="22" height="22" viewBox="0 0 22 22" fill="none" xmlns="http://www.w3.org/2000/svg">
<path d="M7.52632 3.51999C7.52632 5.46403 9.08154 7.03999 11 7.03999C12.9185 7.03999 14.4737 5.46403 14.4737 3.51999C14.4737 1.57596 12.9185 0 11 0C9.08154 0 7.52632 1.57596 7.52632 3.51999Z" fill="white"/>
<path d="M0 17.6C0 19.544 1.55522 21.12 3.47368 21.12C5.39215 21.12 6.94737 19.544 6.94737 17.6C6.94737 15.6559 5.39215 14.08 3.47368 14.08C1.55522 14.08 0 15.6559 0 17.6Z" fill="white"/>
<path d="M18.5263 21.12C16.6079 21.12 15.0526 19.544 15.0526 17.6C15.0526 15.6559 16.6079 14.08 18.5263 14.08C20.4448 14.08 22 15.6559 22 17.6C22 19.544 20.4448 21.12 18.5263 21.12Z" fill="white"/>
<path d="M5.44752 5.3531C5.80711 5.03149 5.84133 4.47539 5.52395 4.11101C5.20658 3.74662 4.65779 3.71195 4.2982 4.03355C2.19625 5.91349 0.868421 8.66683 0.868421 11.7333C0.868421 12.2194 1.25723 12.6133 1.73684 12.6133C2.21646 12.6133 2.60526 12.2194 2.60526 11.7333C2.60526 9.19275 3.70327 6.91311 5.44752 5.3531Z" fill="white"/>
<path d="M17.7018 4.03355C17.3422 3.71195 16.7934 3.74662 16.476 4.11101C16.1587 4.47539 16.1929 5.03149 16.5525 5.3531C18.2967 6.91311 19.3947 9.19275 19.3947 11.7333C19.3947 12.2194 19.7835 12.6133 20.2632 12.6133C20.7428 12.6133 21.1316 12.2194 21.1316 11.7333C21.1316 8.66683 19.8037 5.91349 17.7018 4.03355Z" fill="white"/>
<path d="M8.90067 19.9721C8.43619 19.8509 7.96275 20.1343 7.8432 20.6049C7.72365 21.0756 8.00327 21.5554 8.46775 21.6765C9.27804 21.8878 10.1267 22 11 22C11.8733 22 12.722 21.8878 13.5323 21.6765C13.9967 21.5554 14.2763 21.0756 14.1568 20.6049C14.0373 20.1343 13.5638 19.8509 13.0993 19.9721C12.4293 20.1468 11.726 20.24 11 20.24C10.274 20.24 9.57072 20.1468 8.90067 19.9721Z" fill="white"/>
</svg>
