<svg width="22" height="20" viewBox="0 0 22 20" fill="none" xmlns="http://www.w3.org/2000/svg">
<path d="M0.38053 9.16676C0.137041 8.42961 0 7.68911 0 6.95604C0 0.388329 6.05018 -2.59707 11 2.77641C15.9498 -2.59707 22 0.388123 22 6.956C22 7.68908 21.863 8.4296 21.6195 9.16676H18.2997L18.1765 9.16662C17.5762 9.16563 17.0431 9.16475 16.5579 9.38301C16.0727 9.60127 15.7167 10.0022 15.3156 10.4538L15.2333 10.5464L14.1011 11.8171C14.0168 11.9117 13.948 11.9889 13.8872 12.0548C13.8295 11.9865 13.7641 11.9065 13.6841 11.8086L9.77775 7.02576C9.62426 6.83768 9.46004 6.63646 9.29938 6.48712C9.11228 6.3132 8.83571 6.11757 8.44905 6.09411C8.0624 6.07065 7.76463 6.23144 7.55827 6.38148C7.38107 6.51033 7.19418 6.69025 7.0195 6.85842L5.3369 8.4771C4.81795 8.97633 4.70966 9.06139 4.5964 9.10716C4.48313 9.15292 4.34665 9.16676 3.63 9.16676H0.38053Z" fill="white"/>
<path d="M1.10485 10.8334C2.62393 13.68 5.42332 16.3491 7.65791 18.1897C9.1231 19.3966 9.85569 20 11 20C12.1443 20 12.8769 19.3966 14.3421 18.1897C16.5767 16.3491 19.3761 13.68 20.8952 10.8334H18.2997C17.503 10.8334 17.352 10.8502 17.2292 10.9055C17.1064 10.9608 16.9929 11.063 16.4598 11.6613L15.2995 12.9636C15.1258 13.1587 14.9422 13.3648 14.7659 13.5142C14.5622 13.6867 14.259 13.8801 13.8485 13.8712C13.4382 13.8623 13.1436 13.656 12.9475 13.4749C12.7777 13.318 12.6032 13.1043 12.4381 12.902L8.53035 8.11748C8.45608 8.02653 8.39563 7.95259 8.34229 7.88945C8.28186 7.94568 8.21309 8.01179 8.12857 8.0931L6.39481 9.76113C6.00325 10.1389 5.65581 10.4742 5.20919 10.6546C4.76257 10.8351 4.28211 10.8344 3.74059 10.8335L1.10485 10.8334Z" fill="white"/>
</svg>
