<svg width="18" height="19" viewBox="0 0 18 19" fill="none" xmlns="http://www.w3.org/2000/svg">
<path d="M0.644965 0.0676832C0.425761 0.135006 0.23185 0.286484 0.113817 0.480039L0 0.677801V4.08605V7.4943L0.105386 7.68364C0.164403 7.78463 0.295082 7.92769 0.392037 7.99922L0.577518 8.12545L3.9541 8.13808C6.33583 8.14649 7.38126 8.13808 7.49508 8.10442C7.58361 8.07917 7.73115 7.99081 7.81967 7.91086C8.13161 7.62894 8.11897 7.81408 8.10632 4.01452L8.09368 0.623101L7.96721 0.437962C7.89555 0.341184 7.75222 0.210745 7.65105 0.151837L7.46136 0.0466442L4.11007 0.038229C2.26792 0.0340214 0.708197 0.0466442 0.644965 0.0676832ZM4.7466 2.8069C4.96581 2.87423 5.20187 3.0762 5.29461 3.28238C5.35784 3.42544 5.37471 3.56009 5.37471 4.08605C5.37471 4.78453 5.33255 4.94863 5.09649 5.16743C4.87307 5.37782 4.7171 5.41148 4.03841 5.41148C3.32178 5.41148 3.16159 5.36519 2.94239 5.0959C2.74848 4.86448 2.71054 4.66251 2.7274 3.99769C2.74005 3.45068 2.74848 3.40019 2.85386 3.21505C2.9719 3.0215 3.16581 2.87002 3.38501 2.8027C3.55784 2.748 4.56534 2.7522 4.7466 2.8069Z" fill="white"/>
<path d="M10.5091 0.0845127C10.2688 0.168667 10.1508 0.261237 10.0201 0.454792L9.90631 0.631516L9.89366 4.01873C9.88102 7.80988 9.86837 7.62894 10.1803 7.91086C10.2688 7.99081 10.4164 8.07917 10.5049 8.10442C10.6187 8.13808 11.6642 8.14649 14.0459 8.13808L17.4225 8.12545L17.6079 7.99922C17.7049 7.92769 17.8356 7.78463 17.8946 7.68364L18 7.4943V4.08605V0.677801L17.882 0.480038C17.8061 0.349599 17.6965 0.240198 17.5658 0.164459L17.3677 0.0466433L14.0164 0.038228C11.2932 0.0298128 10.6356 0.038228 10.5091 0.0845127ZM14.8257 2.89947C14.9564 2.97521 15.066 3.08461 15.1419 3.21505C15.2515 3.40019 15.2599 3.44648 15.2726 3.99769C15.2894 4.66251 15.2515 4.86448 15.0576 5.0959C14.8384 5.36519 14.6782 5.41148 13.9616 5.41148C13.2829 5.41148 13.1269 5.37782 12.9035 5.16743C12.6674 4.94863 12.6253 4.78453 12.6253 4.08605C12.6253 3.36232 12.6759 3.19401 12.9372 2.98784C13.1902 2.78587 13.3082 2.76062 13.9953 2.77324C14.6023 2.78166 14.6361 2.78587 14.8257 2.89947Z" fill="white"/>
<path d="M0.569087 9.96011C0.383607 10.0358 0.189696 10.2084 0.0927401 10.3893L0 10.566V13.9743V17.3825L0.118033 17.5803C0.193911 17.7107 0.303513 17.8201 0.434192 17.8959L0.632319 18.0137H4.04684H7.46136L7.65105 17.9085C7.75223 17.8496 7.89555 17.7191 7.96721 17.6224L8.09368 17.4372L8.10632 14.0668C8.11475 11.7105 8.10632 10.646 8.0726 10.5324C8.01358 10.3262 7.7986 10.0863 7.58782 9.99377C7.42764 9.92224 7.22108 9.91382 4.04684 9.91803C1.93489 9.91803 0.636534 9.93486 0.569087 9.96011ZM4.84778 12.7288C4.94052 12.7709 5.06698 12.8592 5.13021 12.9265C5.34098 13.1496 5.37471 13.3052 5.37471 13.9827C5.37471 14.698 5.32834 14.8579 5.05855 15.0767C4.8267 15.2702 4.62436 15.3081 3.95831 15.2913C3.40609 15.2787 3.35972 15.2702 3.17424 15.1608C3.04356 15.0851 2.93396 14.9757 2.85808 14.8453C2.74848 14.6601 2.74005 14.6138 2.7274 14.0626C2.71054 13.3978 2.74848 13.1958 2.94239 12.9644C3.16159 12.6951 3.32178 12.6488 4.04684 12.6488C4.57377 12.6488 4.70867 12.6657 4.84778 12.7288Z" fill="white"/>
<path d="M10.4122 9.99056C10.2014 10.0873 9.98642 10.3272 9.9274 10.5334C9.89789 10.6343 9.88525 10.9499 9.89368 11.3749L9.90632 12.0523L10.0328 12.2375C10.1045 12.3385 10.2478 12.4647 10.3489 12.5236C10.5218 12.6204 10.5934 12.6288 11.1204 12.6414L11.6979 12.6583V13.6639C11.6979 14.7958 11.7148 14.8757 12.0141 15.124C12.2333 15.3049 12.4187 15.3428 13.0468 15.3428C13.6749 15.3428 13.8604 15.3049 14.0796 15.124C14.3874 14.8715 14.3958 14.8168 14.3958 13.4998V12.3216L14.2609 12.1197C14.185 12.0061 14.0459 11.8714 13.9532 11.8209C13.8014 11.7368 13.7255 11.7241 13.207 11.7241H12.6337L12.6169 11.1435C12.6042 10.6217 12.5958 10.5502 12.4988 10.3777C12.4398 10.2767 12.3133 10.1336 12.2122 10.0621L12.0267 9.93586L11.3059 9.92324C10.6735 9.91482 10.5597 9.92324 10.4122 9.99056Z" fill="white"/>
<path d="M14.8721 10.0186C14.7372 10.0859 14.6108 10.1911 14.5391 10.3005C14.4168 10.473 14.4168 10.4773 14.4042 11.222C14.3873 12.0678 14.4211 12.1856 14.7119 12.4296C14.9311 12.6106 15.1166 12.6484 15.7447 12.6484C16.3728 12.6484 16.5583 12.6106 16.7775 12.4296C17.0684 12.1856 17.1021 12.0678 17.0852 11.222C17.0726 10.4773 17.0726 10.473 16.9503 10.3005C16.8787 10.1911 16.7522 10.0859 16.6173 10.0186C16.415 9.91763 16.3644 9.91342 15.7447 9.91342C15.125 9.91342 15.0745 9.91763 14.8721 10.0186Z" fill="white"/>
<path d="M10.4122 15.3754C10.2014 15.4722 9.98642 15.7121 9.9274 15.9182C9.89789 16.0192 9.88525 16.3348 9.89368 16.7598L9.90632 17.4372L10.0328 17.6224C10.1045 17.7233 10.2478 17.8496 10.3489 17.9085C10.5302 18.0095 10.5682 18.0137 11.2553 18.0137C12.0351 18.0137 12.1026 17.9968 12.3471 17.757C12.5874 17.513 12.6042 17.4456 12.6042 16.6672C12.6042 15.9813 12.6 15.9435 12.4988 15.7625C12.4398 15.6616 12.3133 15.5185 12.2122 15.447L12.0267 15.3207L11.3059 15.3081C10.6735 15.2997 10.5597 15.3081 10.4122 15.3754Z" fill="white"/>
<path d="M14.8721 15.4053C14.7372 15.4727 14.6108 15.5779 14.5391 15.6873C14.4168 15.8598 14.4168 15.864 14.4042 16.6087C14.3873 17.4545 14.4211 17.5723 14.7119 17.8164C14.9311 17.9973 15.1166 18.0352 15.7447 18.0352C16.3728 18.0352 16.5583 17.9973 16.7775 17.8164C17.0684 17.5723 17.1021 17.4545 17.0852 16.6087C17.0726 15.864 17.0726 15.8598 16.9503 15.6873C16.8787 15.5779 16.7522 15.4727 16.6173 15.4053C16.415 15.3043 16.3644 15.3001 15.7447 15.3001C15.125 15.3001 15.0745 15.3043 14.8721 15.4053Z" fill="white"/>
</svg>
