<svg width="19" height="16" viewBox="0 0 19 16" fill="none" xmlns="http://www.w3.org/2000/svg">
<path d="M7.3253 0H10.988C14.4411 0 16.1677 0 17.2405 1.11911C18.0129 1.92488 18.2292 3.08425 18.2897 5.01493H0.0235476C0.0841006 3.08425 0.300367 1.92488 1.07277 1.11911C2.14553 0 3.87212 0 7.3253 0Z" fill="white"/>
<path fill-rule="evenodd" clip-rule="evenodd" d="M18.3128 8.42271L17.9387 8.03249C17.1342 7.19315 15.8297 7.19315 15.0251 8.03249L14.2913 8.79804C13.9985 7.98307 13.2449 7.40299 12.3614 7.40299C11.2236 7.40299 10.3012 8.36524 10.3012 9.55224V11.2371C9.85262 11.2891 9.41728 11.4945 9.07331 11.8534C8.26874 12.6927 8.26874 14.0536 9.07331 14.8929L9.44782 15.2836H7.3253C3.87212 15.2836 2.14553 15.2836 1.07277 14.1645C0 13.0454 0 11.2442 0 7.64179C0 7.21965 0 6.82224 0.00172629 6.44776H18.3115C18.3133 6.82224 18.3133 7.21965 18.3133 7.64179C18.3133 7.91208 18.3133 8.17223 18.3128 8.42271ZM3.66265 10.7463C3.28337 10.7463 2.9759 11.067 2.9759 11.4627C2.9759 11.8584 3.28337 12.1791 3.66265 12.1791H7.3253C7.70458 12.1791 8.01205 11.8584 8.01205 11.4627C8.01205 11.067 7.70458 10.7463 7.3253 10.7463H3.66265Z" fill="white"/>
<path fill-rule="evenodd" clip-rule="evenodd" d="M12.3614 8.83582C12.7407 8.83582 13.0482 9.15657 13.0482 9.55224V13.554L13.7072 12.8665C13.9754 12.5868 14.4102 12.5868 14.6784 12.8665C14.9466 13.1463 14.9466 13.5999 14.6784 13.8797L12.847 15.7902C12.5789 16.0699 12.144 16.0699 11.8758 15.7902L10.0445 13.8797C9.77633 13.5999 9.77633 13.1463 10.0445 12.8665C10.3127 12.5868 10.7475 12.5868 11.0157 12.8665L11.6747 13.554V9.55224C11.6747 9.15657 11.9822 8.83582 12.3614 8.83582ZM15.9963 9.04566C16.2645 8.76588 16.6993 8.76588 16.9675 9.04566L18.7989 10.9561C19.067 11.2359 19.067 11.6895 18.7989 11.9693C18.5307 12.249 18.0958 12.249 17.8276 11.9693L17.1687 11.2818V15.2836C17.1687 15.6792 16.8612 16 16.4819 16C16.1026 16 15.7952 15.6792 15.7952 15.2836V11.2818L15.1362 11.9693C14.868 12.249 14.4332 12.249 14.165 11.9693C13.8968 11.6895 13.8968 11.2359 14.165 10.9561L15.9963 9.04566Z" fill="white"/>
</svg>
